<?xml version="1.0" encoding="UTF-8"?>
<!DOCTYPE svg PUBLIC "-//W3C//DTD SVG 1.1//EN" "http://www.w3.org/Graphics/SVG/1.1/DTD/svg11.dtd">
<!-- Creator: CorelDRAW -->
<svg xmlns="http://www.w3.org/2000/svg" xml:space="preserve" width="97.047mm" height="87.4831mm" version="1.1" style="shape-rendering:geometricPrecision; text-rendering:geometricPrecision; image-rendering:optimizeQuality; fill-rule:evenodd; clip-rule:evenodd"
viewBox="0 0 21930.55 19769.32"
 xmlns:xlink="http://www.w3.org/1999/xlink"
 xmlns:xodm="http://www.corel.com/coreldraw/odm/2003">
 <defs>
  <style type="text/css">
   <![CDATA[
    .fil2 {fill:#D2AE6D}
    .fil0 {fill:#5C64AC}
    .fil1 {fill:#2A2E31}
   ]]>
  </style>
 </defs>
 <g id="Camada_x0020_1">
  <metadata id="CorelCorpID_0Corel-Layer"/>
  <path class="fil0" d="M10328.33 118.3c-1191.18,334.72 -1734.32,1744.74 -2361.09,2867.22l-7610.04 13177.4c-817.93,1455.62 -133.94,2941.36 1068.61,3384.75 939.55,346.45 12815.55,176.74 15452.78,176.74 1733.44,0 3437.27,320.6 4480.5,-751.79 1645.1,-1691.11 -629.22,-4252.63 -2194.12,-7056.41l-5700.92 -9890.09c-658.98,-1114.66 -1273.98,-2430.97 -3135.73,-1907.83z"/>
  <path class="fil1" d="M10288.31 2064.02c-1179.54,467.57 -1387.62,1191.7 -2045.06,2348.14 -537.08,944.86 -1020.09,1743.9 -1582.23,2748.29 -603.82,1078.87 -4524.7,7663.77 -4772.44,8368.33 -485.54,1381.27 373.86,2493.52 1281.75,2851.9 793.37,313.23 10751.48,158.84 12986.43,159.16 1620.52,0.2 2594.73,243.09 3520.45,-816.73 1400.01,-1602.87 -335.15,-3497.79 -1742.52,-6022.22 -1055.55,-1893.36 -2120.95,-3739.79 -3219.56,-5586.17 -1242.18,-2087.68 -2182.52,-4940.39 -4426.81,-4050.69z"/>
  <path class="fil0" d="M10486.99 2877.68c-841.34,306.13 -2556.14,3789.64 -3097.81,4722.43l-4326.54 7511.22c-578.93,969.92 -696.51,2158.39 580.47,2511.14 888.66,245.46 6530.6,74.64 7893.91,74.53 5729.71,-0.5 9457.82,875.89 7039.76,-3170.89l-5808.96 -10070.74c-456.7,-805.64 -958.15,-2058.98 -2280.83,-1577.69z"/>
  <path class="fil2" d="M11248.32 13303.91c229.21,-735.79 442.01,-3661.4 535.43,-4635.39 122.82,-1281.73 907.67,-4230.41 -1091.36,-3742.21 -1318.83,322.06 -567,3018.94 -440.64,4220.51l310.65 3566.44c94.28,829.45 -45.99,671.27 685.91,590.64z"/>
  <path class="fil2" d="M10433.78 15077.61c-1352.28,938.15 -66.64,2471.94 1110.62,1880.39 1219.58,-612.76 260.19,-2831.42 -1110.62,-1880.39z"/>
 </g>
</svg>
